<svg width="1423pt" height="260pt" viewBox="0.00 0.00 1423.00 260.00" xmlns="http://www.w3.org/2000/svg" xmlns:xlink="http://www.w3.org/1999/xlink">
<g id="graph0" class="graph" transform="scale(1 1) rotate(0) translate(4 256)">
<title>G</title>
<polygon fill="white" stroke="none" points="-4,4 -4,-256 1419,-256 1419,4 -4,4"/>
<!-- 1 -->
<g id="node1" class="node">
<title>1</title>
<ellipse fill="none" stroke="black" cx="315" cy="-90" rx="27" ry="18"/>
<text text-anchor="middle" x="315" y="-85.8" font-family="Times,serif" font-size="14.00">1</text>
</g>
<!-- 34 -->
<g id="node2" class="node">
<title>34</title>
<ellipse fill="lightblue" stroke="lightblue" cx="279" cy="-18" rx="27" ry="18"/>
<text text-anchor="middle" x="279" y="-13.8" font-family="Times,serif" font-size="14.00">34</text>
</g>
<!-- 1&#45;&#45;34 -->
<g id="edge1" class="edge">
<title>1--34</title>
<path fill="none" stroke="black" d="M306.65,-72.76C300.83,-61.46 293.11,-46.44 287.3,-35.15"/>
</g>
<!-- 2 -->
<g id="node3" class="node">
<title>2</title>
<ellipse fill="none" stroke="black" cx="715" cy="-234" rx="27" ry="18"/>
<text text-anchor="middle" x="715" y="-229.8" font-family="Times,serif" font-size="14.00">2</text>
</g>
<!-- 10 -->
<g id="node4" class="node">
<title>10</title>
<ellipse fill="lightblue" stroke="lightblue" cx="787" cy="-162" rx="27" ry="18"/>
<text text-anchor="middle" x="787" y="-157.8" font-family="Times,serif" font-size="14.00">10</text>
</g>
<!-- 2&#45;&#45;10 -->
<g id="edge2" class="edge">
<title>2--10</title>
<path fill="none" stroke="black" d="M729.92,-218.5C742.28,-206.48 759.75,-189.49 772.1,-177.49"/>
</g>
<!-- 26 -->
<g id="node6" class="node">
<title>26</title>
<ellipse fill="none" stroke="black" cx="861" cy="-90" rx="27" ry="18"/>
<text text-anchor="middle" x="861" y="-85.8" font-family="Times,serif" font-size="14.00">26</text>
</g>
<!-- 10&#45;&#45;26 -->
<g id="edge17" class="edge">
<title>10--26</title>
<path fill="none" stroke="lightgrey" d="M801.98,-146.83C814.73,-134.77 832.97,-117.51 845.79,-105.38"/>
</g>
<!-- 30 -->
<g id="node22" class="node">
<title>30</title>
<ellipse fill="none" stroke="black" cx="933" cy="-90" rx="27" ry="18"/>
<text text-anchor="middle" x="933" y="-85.8" font-family="Times,serif" font-size="14.00">30</text>
</g>
<!-- 10&#45;&#45;30 -->
<g id="edge18" class="edge">
<title>10--30</title>
<path fill="none" stroke="black" d="M808.54,-150.67C836.15,-137.44 883.72,-114.63 911.37,-101.37"/>
</g>
<!-- 31 -->
<g id="node23" class="node">
<title>31</title>
<ellipse fill="none" stroke="black" cx="789" cy="-90" rx="27" ry="18"/>
<text text-anchor="middle" x="789" y="-85.8" font-family="Times,serif" font-size="14.00">31</text>
</g>
<!-- 10&#45;&#45;31 -->
<g id="edge19" class="edge">
<title>10--31</title>
<path fill="none" stroke="black" d="M787.49,-143.7C787.8,-132.85 788.2,-118.92 788.51,-108.1"/>
</g>
<!-- 36 -->
<g id="node24" class="node">
<title>36</title>
<ellipse fill="none" stroke="black" cx="717" cy="-90" rx="27" ry="18"/>
<text text-anchor="middle" x="717" y="-85.8" font-family="Times,serif" font-size="14.00">36</text>
</g>
<!-- 10&#45;&#45;36 -->
<g id="edge20" class="edge">
<title>10--36</title>
<path fill="none" stroke="black" d="M772.5,-146.5C760.48,-134.48 743.49,-117.49 731.49,-105.49"/>
</g>
<!-- 3 -->
<g id="node5" class="node">
<title>3</title>
<ellipse fill="none" stroke="black" cx="590" cy="-162" rx="27" ry="18"/>
<text text-anchor="middle" x="590" y="-157.8" font-family="Times,serif" font-size="14.00">3</text>
</g>
<!-- 3&#45;&#45;26 -->
<g id="edge3" class="edge">
<title>3--26</title>
<path fill="none" stroke="lightgrey" d="M610.56,-150.16C615.52,-147.87 620.87,-145.65 626,-144 711.59,-116.57 739.41,-135.43 825,-108 830.13,-106.35 835.48,-104.13 840.44,-101.84"/>
</g>
<!-- 29 -->
<g id="node7" class="node">
<title>29</title>
<ellipse fill="lightblue" stroke="lightblue" cx="497" cy="-90" rx="27" ry="18"/>
<text text-anchor="middle" x="497" y="-85.8" font-family="Times,serif" font-size="14.00">29</text>
</g>
<!-- 3&#45;&#45;29 -->
<g id="edge4" class="edge">
<title>3--29</title>
<path fill="none" stroke="black" d="M572.51,-147.83C555.88,-135.32 531.02,-116.6 514.41,-104.11"/>
</g>
<!-- 38 -->
<g id="node8" class="node">
<title>38</title>
<ellipse fill="none" stroke="black" cx="1016" cy="-18" rx="27" ry="18"/>
<text text-anchor="middle" x="1016" y="-13.8" font-family="Times,serif" font-size="14.00">38</text>
</g>
<!-- 3&#45;&#45;38 -->
<g id="edge5" class="edge">
<title>3--38</title>
<path fill="none" stroke="black" d="M597.85,-144.39C608.56,-123.72 629.81,-89.08 659,-72 715.25,-39.09 915.77,-24.67 988.99,-20.42"/>
</g>
<!-- 29&#45;&#45;34 -->
<g id="edge48" class="edge">
<title>29--34</title>
<path fill="none" stroke="black" d="M475.92,-78.37C471.08,-76.12 465.91,-73.86 461,-72 406.22,-51.24 339.63,-33.73 304.14,-24.98"/>
</g>
<!-- 4 -->
<g id="node9" class="node">
<title>4</title>
<ellipse fill="none" stroke="black" cx="497" cy="-234" rx="27" ry="18"/>
<text text-anchor="middle" x="497" y="-229.8" font-family="Times,serif" font-size="14.00">4</text>
</g>
<!-- 7 -->
<g id="node10" class="node">
<title>7</title>
<ellipse fill="lightblue" stroke="lightblue" cx="497" cy="-162" rx="27" ry="18"/>
<text text-anchor="middle" x="497" y="-157.8" font-family="Times,serif" font-size="14.00">7</text>
</g>
<!-- 4&#45;&#45;7 -->
<g id="edge6" class="edge">
<title>4--7</title>
<path fill="none" stroke="black" d="M497,-215.7C497,-204.85 497,-190.92 497,-180.1"/>
</g>
<!-- 7&#45;&#45;29 -->
<g id="edge10" class="edge">
<title>7--29</title>
<path fill="none" stroke="black" d="M497,-143.7C497,-132.85 497,-118.92 497,-108.1"/>
</g>
<!-- 27 -->
<g id="node15" class="node">
<title>27</title>
<ellipse fill="none" stroke="black" cx="425" cy="-90" rx="27" ry="18"/>
<text text-anchor="middle" x="425" y="-85.8" font-family="Times,serif" font-size="14.00">27</text>
</g>
<!-- 7&#45;&#45;27 -->
<g id="edge9" class="edge">
<title>7--27</title>
<path fill="none" stroke="black" d="M482.08,-146.5C469.72,-134.48 452.25,-117.49 439.9,-105.49"/>
</g>
<!-- 40 -->
<g id="node16" class="node">
<title>40</title>
<ellipse fill="none" stroke="black" cx="569" cy="-90" rx="27" ry="18"/>
<text text-anchor="middle" x="569" y="-85.8" font-family="Times,serif" font-size="14.00">40</text>
</g>
<!-- 7&#45;&#45;40 -->
<g id="edge11" class="edge">
<title>7--40</title>
<path fill="none" stroke="black" d="M511.92,-146.5C524.28,-134.48 541.75,-117.49 554.1,-105.49"/>
</g>
<!-- 5 -->
<g id="node11" class="node">
<title>5</title>
<ellipse fill="none" stroke="black" cx="643" cy="-234" rx="27" ry="18"/>
<text text-anchor="middle" x="643" y="-229.8" font-family="Times,serif" font-size="14.00">5</text>
</g>
<!-- 20 -->
<g id="node12" class="node">
<title>20</title>
<ellipse fill="lightblue" stroke="lightblue" cx="662" cy="-162" rx="27" ry="18"/>
<text text-anchor="middle" x="662" y="-157.8" font-family="Times,serif" font-size="14.00">20</text>
</g>
<!-- 5&#45;&#45;20 -->
<g id="edge7" class="edge">
<title>5--20</title>
<path fill="none" stroke="black" d="M647.6,-216.05C650.59,-205.05 654.46,-190.76 657.44,-179.79"/>
</g>
<!-- 20&#45;&#45;38 -->
<g id="edge40" class="edge">
<title>20--38</title>
<path fill="none" stroke="black" d="M660.39,-143.87C659.52,-123.66 661.51,-90.48 681,-72 725.23,-30.07 916.96,-21.3 988.74,-19.47"/>
</g>
<!-- 20&#45;&#45;36 -->
<g id="edge39" class="edge">
<title>20--36</title>
<path fill="none" stroke="black" d="M674.21,-145.46C683.32,-133.86 695.72,-118.08 704.83,-106.49"/>
</g>
<!-- 6 -->
<g id="node13" class="node">
<title>6</title>
<ellipse fill="none" stroke="black" cx="1003" cy="-234" rx="27" ry="18"/>
<text text-anchor="middle" x="1003" y="-229.8" font-family="Times,serif" font-size="14.00">6</text>
</g>
<!-- 21 -->
<g id="node14" class="node">
<title>21</title>
<ellipse fill="lightblue" stroke="lightblue" cx="931" cy="-162" rx="27" ry="18"/>
<text text-anchor="middle" x="931" y="-157.8" font-family="Times,serif" font-size="14.00">21</text>
</g>
<!-- 6&#45;&#45;21 -->
<g id="edge8" class="edge">
<title>6--21</title>
<path fill="none" stroke="black" d="M988.08,-218.5C975.72,-206.48 958.25,-189.49 945.9,-177.49"/>
</g>
<!-- 21&#45;&#45;26 -->
<g id="edge41" class="edge">
<title>21--26</title>
<path fill="none" stroke="black" d="M916.5,-146.5C904.48,-134.48 887.49,-117.49 875.49,-105.49"/>
</g>
<!-- 37 -->
<g id="node20" class="node">
<title>37</title>
<ellipse fill="none" stroke="black" cx="1005" cy="-90" rx="27" ry="18"/>
<text text-anchor="middle" x="1005" y="-85.8" font-family="Times,serif" font-size="14.00">37</text>
</g>
<!-- 21&#45;&#45;37 -->
<g id="edge42" class="edge">
<title>21--37</title>
<path fill="none" stroke="black" d="M945.98,-146.83C958.73,-134.77 976.97,-117.51 989.79,-105.38"/>
</g>
<!-- 8 -->
<g id="node17" class="node">
<title>8</title>
<ellipse fill="none" stroke="black" cx="1075" cy="-234" rx="27" ry="18"/>
<text text-anchor="middle" x="1075" y="-229.8" font-family="Times,serif" font-size="14.00">8</text>
</g>
<!-- 8&#45;&#45;21 -->
<g id="edge14" class="edge">
<title>8--21</title>
<path fill="none" stroke="black" d="M1053.44,-222.52C1026.14,-209.25 979.39,-186.52 952.24,-173.32"/>
</g>
<!-- 17 -->
<g id="node18" class="node">
<title>17</title>
<ellipse fill="none" stroke="black" cx="1075" cy="-162" rx="27" ry="18"/>
<text text-anchor="middle" x="1075" y="-157.8" font-family="Times,serif" font-size="14.00">17</text>
</g>
<!-- 8&#45;&#45;17 -->
<g id="edge12" class="edge">
<title>8--17</title>
<path fill="none" stroke="lightgrey" d="M1075,-215.7C1075,-204.85 1075,-190.92 1075,-180.1"/>
</g>
<!-- 19 -->
<g id="node19" class="node">
<title>19</title>
<ellipse fill="none" stroke="black" cx="1003" cy="-162" rx="27" ry="18"/>
<text text-anchor="middle" x="1003" y="-157.8" font-family="Times,serif" font-size="14.00">19</text>
</g>
<!-- 8&#45;&#45;19 -->
<g id="edge13" class="edge">
<title>8--19</title>
<path fill="none" stroke="black" d="M1060.08,-218.5C1047.72,-206.48 1030.25,-189.49 1017.9,-177.49"/>
</g>
<!-- 8&#45;&#45;37 -->
<g id="edge15" class="edge">
<title>8--37</title>
<path fill="none" stroke="lightgrey" d="M1088.95,-218.42C1104.64,-200.18 1126.07,-168.39 1111,-144 1093.58,-115.82 1056.15,-102.12 1030.76,-95.84"/>
</g>
<!-- 17&#45;&#45;30 -->
<g id="edge35" class="edge">
<title>17--30</title>
<path fill="none" stroke="black" d="M1053.74,-150.52C1026.97,-137.32 981.24,-114.78 954.4,-101.55"/>
</g>
<!-- 19&#45;&#45;36 -->
<g id="edge38" class="edge">
<title>19--36</title>
<path fill="none" stroke="lightgrey" d="M982.45,-150.11C977.5,-147.82 972.14,-145.61 967,-144 874.97,-115.14 845.03,-136.86 753,-108 747.86,-106.39 742.5,-104.18 737.55,-101.89"/>
</g>
<!-- 24 -->
<g id="node38" class="node">
<title>24</title>
<ellipse fill="none" stroke="black" cx="1295" cy="-90" rx="27" ry="18"/>
<text text-anchor="middle" x="1295" y="-85.8" font-family="Times,serif" font-size="14.00">24</text>
</g>
<!-- 19&#45;&#45;24 -->
<g id="edge37" class="edge">
<title>19--24</title>
<path fill="none" stroke="black" d="M1023.98,-150.08C1028.82,-147.84 1034.02,-145.67 1039,-144 1120.35,-116.8 1221.12,-100.87 1268.29,-94.4"/>
</g>
<!-- 9 -->
<g id="node21" class="node">
<title>9</title>
<ellipse fill="none" stroke="black" cx="931" cy="-234" rx="27" ry="18"/>
<text text-anchor="middle" x="931" y="-229.8" font-family="Times,serif" font-size="14.00">9</text>
</g>
<!-- 9&#45;&#45;21 -->
<g id="edge16" class="edge">
<title>9--21</title>
<path fill="none" stroke="black" d="M931,-215.7C931,-204.85 931,-190.92 931,-180.1"/>
</g>
<!-- 32 -->
<g id="node29" class="node">
<title>32</title>
<ellipse fill="none" stroke="black" cx="1388" cy="-18" rx="27" ry="18"/>
<text text-anchor="middle" x="1388" y="-13.8" font-family="Times,serif" font-size="14.00">32</text>
</g>
<!-- 31&#45;&#45;32 -->
<g id="edge49" class="edge">
<title>31--32</title>
<path fill="none" stroke="black" d="M809.47,-77.84C814.43,-75.56 819.8,-73.43 825,-72 928.09,-43.75 1263.13,-25.21 1360.95,-20.3"/>
</g>
<!-- 39 -->
<g id="node34" class="node">
<title>39</title>
<ellipse fill="none" stroke="black" cx="544" cy="-18" rx="27" ry="18"/>
<text text-anchor="middle" x="544" y="-13.8" font-family="Times,serif" font-size="14.00">39</text>
</g>
<!-- 36&#45;&#45;39 -->
<g id="edge50" class="edge">
<title>36--39</title>
<path fill="none" stroke="lightgrey" d="M694.38,-79.85C661.23,-66.43 599.78,-41.57 566.62,-28.15"/>
</g>
<!-- 11 -->
<g id="node25" class="node">
<title>11</title>
<ellipse fill="none" stroke="black" cx="171" cy="-90" rx="27" ry="18"/>
<text text-anchor="middle" x="171" y="-85.8" font-family="Times,serif" font-size="14.00">11</text>
</g>
<!-- 11&#45;&#45;34 -->
<g id="edge21" class="edge">
<title>11--34</title>
<path fill="none" stroke="black" d="M189.81,-76.81C209.51,-64.04 240.28,-44.09 260.04,-31.29"/>
</g>
<!-- 12 -->
<g id="node26" class="node">
<title>12</title>
<ellipse fill="none" stroke="black" cx="859" cy="-234" rx="27" ry="18"/>
<text text-anchor="middle" x="859" y="-229.8" font-family="Times,serif" font-size="14.00">12</text>
</g>
<!-- 22 -->
<g id="node27" class="node">
<title>22</title>
<ellipse fill="lightblue" stroke="lightblue" cx="859" cy="-162" rx="27" ry="18"/>
<text text-anchor="middle" x="859" y="-157.8" font-family="Times,serif" font-size="14.00">22</text>
</g>
<!-- 12&#45;&#45;22 -->
<g id="edge22" class="edge">
<title>12--22</title>
<path fill="none" stroke="black" d="M859,-215.7C859,-204.85 859,-190.92 859,-180.1"/>
</g>
<!-- 22&#45;&#45;26 -->
<g id="edge43" class="edge">
<title>22--26</title>
<path fill="none" stroke="black" d="M859.49,-143.7C859.8,-132.85 860.2,-118.92 860.51,-108.1"/>
</g>
<!-- 22&#45;&#45;37 -->
<g id="edge44" class="edge">
<title>22--37</title>
<path fill="none" stroke="lightgrey" d="M880.54,-150.67C908.15,-137.44 955.72,-114.63 983.37,-101.37"/>
</g>
<!-- 13 -->
<g id="node28" class="node">
<title>13</title>
<ellipse fill="none" stroke="black" cx="1213" cy="-234" rx="27" ry="18"/>
<text text-anchor="middle" x="1213" y="-229.8" font-family="Times,serif" font-size="14.00">13</text>
</g>
<!-- 13&#45;&#45;38 -->
<g id="edge26" class="edge">
<title>13--38</title>
<path fill="none" stroke="lightgrey" d="M1219.83,-216.4C1226.42,-197.58 1233.68,-166.59 1221,-144 1181.92,-74.4 1086.59,-38.98 1041.04,-25.55"/>
</g>
<!-- 13&#45;&#45;17 -->
<g id="edge23" class="edge">
<title>13--17</title>
<path fill="none" stroke="black" d="M1192.04,-222.37C1166.1,-209.21 1122.19,-186.93 1096.16,-173.73"/>
</g>
<!-- 13&#45;&#45;32 -->
<g id="edge24" class="edge">
<title>13--32</title>
<path fill="none" stroke="lightgrey" d="M1238.58,-227.76C1265.14,-221.05 1306.2,-206.92 1331,-180 1369.57,-138.13 1382.35,-68.5 1386.33,-36.31"/>
</g>
<!-- 35 -->
<g id="node30" class="node">
<title>35</title>
<ellipse fill="none" stroke="black" cx="1185" cy="-162" rx="27" ry="18"/>
<text text-anchor="middle" x="1185" y="-157.8" font-family="Times,serif" font-size="14.00">35</text>
</g>
<!-- 13&#45;&#45;35 -->
<g id="edge25" class="edge">
<title>13--35</title>
<path fill="none" stroke="black" d="M1206.36,-216.41C1201.9,-205.25 1196.04,-190.6 1191.59,-179.47"/>
</g>
<!-- 14 -->
<g id="node31" class="node">
<title>14</title>
<ellipse fill="lightblue" stroke="lightblue" cx="234" cy="-162" rx="27" ry="18"/>
<text text-anchor="middle" x="234" y="-157.8" font-family="Times,serif" font-size="14.00">14</text>
</g>
<!-- 14&#45;&#45;29 -->
<g id="edge28" class="edge">
<title>14--29</title>
<path fill="none" stroke="black" d="M260.04,-156.78C302.77,-149.43 390.11,-132.7 461,-108 465.96,-106.27 471.15,-104.07 475.99,-101.83"/>
</g>
<!-- 25 -->
<g id="node32" class="node">
<title>25</title>
<ellipse fill="none" stroke="black" cx="27" cy="-90" rx="27" ry="18"/>
<text text-anchor="middle" x="27" y="-85.8" font-family="Times,serif" font-size="14.00">25</text>
</g>
<!-- 14&#45;&#45;25 -->
<g id="edge27" class="edge">
<title>14--25</title>
<path fill="none" stroke="black" d="M208.99,-154.44C175.34,-145.34 113.84,-127.77 63,-108 58.1,-106.1 52.94,-103.82 48.1,-101.57"/>
</g>
<!-- 33 -->
<g id="node33" class="node">
<title>33</title>
<ellipse fill="none" stroke="black" cx="99" cy="-90" rx="27" ry="18"/>
<text text-anchor="middle" x="99" y="-85.8" font-family="Times,serif" font-size="14.00">33</text>
</g>
<!-- 14&#45;&#45;33 -->
<g id="edge29" class="edge">
<title>14--33</title>
<path fill="none" stroke="black" d="M213.2,-150.22C187.76,-137.02 144.95,-114.83 119.6,-101.68"/>
</g>
<!-- 14&#45;&#45;39 -->
<g id="edge30" class="edge">
<title>14--39</title>
<path fill="none" stroke="black" d="M257.61,-152.96C282.13,-144.02 321.02,-128.15 351,-108 370.31,-95.02 369.09,-84.04 389,-72 430.73,-46.76 486.11,-31.55 518.13,-24.26"/>
</g>
<!-- 15 -->
<g id="node35" class="node">
<title>15</title>
<ellipse fill="none" stroke="black" cx="787" cy="-234" rx="27" ry="18"/>
<text text-anchor="middle" x="787" y="-229.8" font-family="Times,serif" font-size="14.00">15</text>
</g>
<!-- 15&#45;&#45;22 -->
<g id="edge31" class="edge">
<title>15--22</title>
<path fill="none" stroke="black" d="M801.92,-218.5C814.28,-206.48 831.75,-189.49 844.1,-177.49"/>
</g>
<!-- 16 -->
<g id="node36" class="node">
<title>16</title>
<ellipse fill="none" stroke="black" cx="1350" cy="-234" rx="27" ry="18"/>
<text text-anchor="middle" x="1350" y="-229.8" font-family="Times,serif" font-size="14.00">16</text>
</g>
<!-- 16&#45;&#45;32 -->
<g id="edge34" class="edge">
<title>16--32</title>
<path fill="none" stroke="black" d="M1368.41,-220.3C1380.47,-210.79 1395.22,-196.59 1402,-180 1422.17,-130.65 1404.69,-65.87 1394.33,-35.75"/>
</g>
<!-- 23 -->
<g id="node37" class="node">
<title>23</title>
<ellipse fill="none" stroke="black" cx="1295" cy="-162" rx="27" ry="18"/>
<text text-anchor="middle" x="1295" y="-157.8" font-family="Times,serif" font-size="14.00">23</text>
</g>
<!-- 16&#45;&#45;23 -->
<g id="edge32" class="edge">
<title>16--23</title>
<path fill="none" stroke="black" d="M1337.79,-217.46C1328.68,-205.86 1316.28,-190.08 1307.17,-178.49"/>
</g>
<!-- 16&#45;&#45;24 -->
<g id="edge33" class="edge">
<title>16--24</title>
<path fill="none" stroke="lightgrey" d="M1348.3,-215.67C1346.05,-197.29 1341.11,-167.69 1331,-144 1325.15,-130.29 1315.56,-116.41 1307.75,-106.3"/>
</g>
<!-- 23&#45;&#45;24 -->
<g id="edge45" class="edge">
<title>23--24</title>
<path fill="none" stroke="black" d="M1295,-143.7C1295,-132.85 1295,-118.92 1295,-108.1"/>
</g>
<!-- 24&#45;&#45;38 -->
<g id="edge46" class="edge">
<title>24--38</title>
<path fill="none" stroke="lightgrey" d="M1273.13,-79.11C1267.02,-76.57 1260.32,-74 1254,-72 1178.52,-48.15 1086.32,-30.86 1042.1,-23.28"/>
</g>
<!-- 18 -->
<g id="node39" class="node">
<title>18</title>
<ellipse fill="none" stroke="black" cx="571" cy="-234" rx="27" ry="18"/>
<text text-anchor="middle" x="571" y="-229.8" font-family="Times,serif" font-size="14.00">18</text>
</g>
<!-- 18&#45;&#45;20 -->
<g id="edge36" class="edge">
<title>18--20</title>
<path fill="none" stroke="black" d="M588.12,-219.83C604.28,-207.4 628.41,-188.84 644.65,-176.35"/>
</g>
<!-- 28 -->
<g id="node40" class="node">
<title>28</title>
<ellipse fill="none" stroke="black" cx="243" cy="-90" rx="27" ry="18"/>
<text text-anchor="middle" x="243" y="-85.8" font-family="Times,serif" font-size="14.00">28</text>
</g>
<!-- 28&#45;&#45;34 -->
<g id="edge47" class="edge">
<title>28--34</title>
<path fill="none" stroke="black" d="M251.35,-72.76C257.17,-61.46 264.89,-46.44 270.7,-35.15"/>
</g>
</g>
</svg>